<svg height="512pt" viewBox="-75 0 512 512" width="512pt" xmlns="http://www.w3.org/2000/svg"><path d="m31.652344 73.917969h298.5625v343.566406h-298.5625zm0 0" fill="#141b73"/><path d="m31.652344 73.917969h149.28125v343.566406h-149.28125zm0 0" fill="#004199"/><path d="m31.652344 410.5625v69.65625c0 17.523438 14.257812 31.78125 31.785156 31.78125h234.992188c17.527343 0 31.785156-14.257812 31.785156-31.78125v-69.65625zm0 0" fill="#0059b2"/><path d="m114.175781 65.84375-10.585937 78.652344h77.34375v-78.652344zm0 0" fill="#fd3"/><path d="m46.890625 65.84375c-5.675781 0-10.867187 3.207031-13.410156 8.28125l-31.890625 63.648438c-1.046875 2.085937-1.589844 4.386718-1.589844 6.722656h103.589844l10.585937-78.652344zm0 0" fill="#ff2a00"/><path d="m361.867188 144.496094c0-2.335938-.542969-4.636719-1.589844-6.722656l-31.890625-63.648438c-2.542969-5.074219-7.734375-8.28125-13.410157-8.28125h-67.285156l10.585938 78.652344zm0 0" fill="#fd3"/><path d="m247.691406 65.84375h-66.757812v78.652344h77.34375zm0 0" fill="#ff2a00"/><path d="m103.589844 144.496094-5.554688 41.265625c10.324219 11.976562 25.066406 19.484375 41.414063 19.484375 16.382812 0 31.15625-7.539063 41.484375-19.5625v-41.1875zm0 0" fill="#fa0"/><path d="m0 144.496094c0 33.496094 25.339844 60.75 56.484375 60.75 16.378906 0 31.15625-7.539063 41.480469-19.5625.023437.027344.046875.050781.070312.078125l5.554688-41.269531h-103.589844zm0 0" fill="#cc0702"/><path d="m180.933594 144.496094v41.1875c10.328125 12.023437 25.101562 19.5625 41.484375 19.5625 16.347656 0 31.089843-7.507813 41.414062-19.484375l-5.554687-41.265625zm0 0" fill="#cc0702"/><path d="m258.277344 144.496094 5.554687 41.265625c.023438-.027344.046875-.050781.070313-.078125 10.324218 12.023437 25.101562 19.5625 41.480468 19.5625 31.148438 0 56.484376-27.253906 56.484376-60.75zm0 0" fill="#fa0"/><path d="m330.214844 31.785156c0-17.527344-14.257813-31.785156-31.785156-31.785156h-234.992188c-17.527344 0-31.785156 14.257812-31.785156 31.785156v49.058594h298.5625zm0 0" fill="#0059b2"/><path d="m31.652344 480.21875c0 17.523438 14.257812 31.78125 31.785156 31.78125h117.496094v-101.4375h-149.28125zm0 0" fill="#176ee5"/><path d="m63.4375 0c-17.527344 0-31.785156 14.257812-31.785156 31.785156v49.058594h149.28125v-80.84375zm0 0" fill="#176ee5"/><path d="m195.933594 453.851562c0-8.257812-6.714844-14.949218-15-14.949218s-15 6.691406-15 14.949218c0 8.257813 6.714844 14.949219 15 14.949219s15-6.691406 15-14.949219zm0 0" fill="#141b73"/><path d="m165.933594 453.851562c0 8.257813 6.714844 14.949219 15 14.949219v-29.898437c-8.285156 0-15 6.695312-15 14.949218zm0 0" fill="#004199"/><path d="m263.203125 297.304688-61.289063-61.289063c-1.515624-1.515625-3.335937-2.6875-5.34375-3.441406l-35.929687-13.460938c-5.507813-2.0625-11.710937-.71875-15.871094 3.441407l-36.382812 36.382812c-4.15625 4.15625-5.5 10.359375-3.4375 15.867188l13.460937 35.933593c.753906 2.003907 1.925782 3.828125 3.441406 5.34375l61.289063 61.285157c2.8125 2.816406 6.625 4.394531 10.605469 4.394531 3.976562 0 7.792968-1.578125 10.605468-4.394531l58.851563-58.851563c5.859375-5.855469 5.859375-15.355469 0-21.210937zm0 0" fill="#cc0702"/><path d="m176.945312 267.621094c-6.191406-6.191406-16.25-6.175782-22.464843.039062-6.210938 6.210938-6.230469 16.269532-.035157 22.460938 6.191407 6.191406 16.25 6.175781 22.460938-.039063 6.214844-6.210937 6.230469-16.269531.039062-22.460937zm0 0" fill="#141b73"/><path d="m108.386719 258.9375c-4.15625 4.15625-5.5 10.359375-3.4375 15.867188l13.460937 35.933593c.753906 2.003907 1.925782 3.828125 3.441406 5.34375l61.289063 61.285157c2.8125 2.816406 6.625 4.394531 10.605469 4.394531 3.976562 0 7.792968-1.578125 10.605468-4.394531l29.960938-29.957032-107.199219-107.199218zm0 0" fill="#ff2a00"/><path d="m154.484375 267.65625c-6.214844 6.214844-6.230469 16.273438-.039063 22.464844 6.195313 6.191406 16.25 6.175781 22.464844-.039063.011719-.011719.023438-.027343.035156-.039062l-22.421874-22.421875c-.011719.015625-.027344.023437-.039063.035156zm0 0" fill="#004199"/></svg>