<svg height="512pt" viewBox="0 0 512 512" width="512pt" xmlns="http://www.w3.org/2000/svg"><path d="m60 0h392v75h-392zm0 0" fill="#fdbf00"/><path d="m256 0h196v75h-196zm0 0" fill="#ff9100"/><path d="m30 60h452v75h-452zm0 0" fill="#61d7a8"/><path d="m256 60h226v75h-226zm0 0" fill="#00ab94"/><path d="m0 120v392h512v-392zm0 0" fill="#dae9fa"/><path d="m256 120h256v392h-256zm0 0" fill="#afc5f4"/><path d="m256 181c-74.398438 0-135 60.597656-135 135 0 74.398438 60.601562 135 135 135s135-60.601562 135-135c0-74.402344-60.601562-135-135-135zm0 0" fill="#ff641a"/><path d="m391 316c0 74.398438-60.601562 135-135 135v-270c74.398438 0 135 60.597656 135 135zm0 0" fill="#f03800"/><path d="m256 258.101562-45-30v175.796876l45-30 87-57.898438zm0 0" fill="#dae9fa"/><path d="m60 181h30v30h-30zm0 0" fill="#afc5f4"/><path d="m60 421h30v30h-30zm0 0" fill="#afc5f4"/><path d="m422 421h30v30h-30zm0 0" fill="#95a8ce"/><path d="m422 181h30v30h-30zm0 0" fill="#95a8ce"/><path d="m256 258.101562 87 57.898438-87 57.898438zm0 0" fill="#afc5f4"/></svg>